<?xml version="1.0" encoding="utf-8"?>
<!-- Generator: Adobe Illustrator 22.0.1, SVG Export Plug-In . SVG Version: 6.00 Build 0)  -->
<svg version="1.1" id="_x32_4G_Logo" xmlns="http://www.w3.org/2000/svg" xmlns:xlink="http://www.w3.org/1999/xlink" x="0px"
	 y="0px" viewBox="0 0 637 332" style="enable-background:new 0 0 637 332;" xml:space="preserve">
<style type="text/css">
	.st0{fill:#FAA61B;}
	.st1{fill:#FFFFFF;}
</style>
<path id="G" class="st0" d="M466.5,26c-66.8,0-122.7,46.8-136.6,109.5c18-22.2,45.4-36.3,76.1-36.3c26.1,0,47.6,9.5,66.1,25.3
	l-19,20.1c-12.8-11.2-29.7-18.5-46.3-18.5c-38.6,0-68.3,32.7-68.3,70.8c0,37.8,29.7,70.5,68.3,70.5c22.6,0,38.1-8.2,40.8-9.3v-30.5
	h-31.8v-25.9h59.6c-0.1,23.4,0.3,47.5,0.3,71c0,1.4-1.1,3.5-2.2,4.4c0,0-25.3,16.2-61.6,17.8c16.8,7.1,35.3,11.1,54.7,11.1
	c77.3,0,140-62.7,140-140C606.5,88.7,543.8,26,466.5,26"/>
<path id="_x34_" class="st1" d="M266.6,228v-80L201,228H266.6z M171.6,229.1l99.8-126.1l20.2,0v125.6h22V250h-22l0,41.3h-26.1v-0.2
	v-40.5h-93.9V229.1z"/>
<path id="_x32_" class="st1" d="M30.5,291c20.1-22.9,61-69.7,81.1-93.6c13.6-15.2,20.7-28.8,20.7-39.7c0-13.9-9.5-29.7-33.5-29.7
	c-15,0-27.2,10.3-34.6,18.2l-16.9-16.3c0,0,20.4-26.7,52.8-26.7c38.9,0,59.6,24.8,59.6,53.3c0,21-11.4,35.4-26.1,53.1
	c-14.3,17.2-33.1,39.3-49,57.4c-0.2,0.2,0,0.6,0.3,0.6h73.4c0.2,0,0.3,0.2,0.3,0.4v22.7c-0.1,0.1-0.2,0.2-0.4,0.4
	C158.3,291,30.4,291,30.5,291"/>
</svg>
