<?xml version="1.0" standalone="no"?>
<!DOCTYPE svg PUBLIC "-//W3C//DTD SVG 20010904//EN"
 "http://www.w3.org/TR/2001/REC-SVG-20010904/DTD/svg10.dtd">
<svg version="1.0" xmlns="http://www.w3.org/2000/svg"
 width="248.000000pt" height="256.000000pt" viewBox="0 0 248.000000 256.000000"
 preserveAspectRatio="xMidYMid meet">

<g transform="translate(0.000000,256.000000) scale(0.100000,-0.100000)"
fill="#000000" stroke="none">
<path d="M0 1280 l0 -1280 1240 0 1240 0 0 1280 0 1280 -1240 0 -1240 0 0
-1280z m1670 1020 c0 -39 -1 -40 -35 -40 l-35 0 0 -215 0 -215 35 0 c34 0 35
-1 35 -40 l0 -40 -80 0 -80 0 0 295 0 295 80 0 80 0 0 -40z m360 -255 l0 -295
-80 0 -80 0 0 40 c0 39 1 40 35 40 l35 0 0 215 0 215 -35 0 c-34 0 -35 1 -35
40 l0 40 80 0 80 0 0 -295z m-1585 215 c9 -16 20 -30 25 -30 5 0 17 14 27 30
15 27 23 30 65 30 l48 0 -2 -202 -3 -203 -23 -3 c-46 -7 -52 10 -52 151 0 78
-4 127 -9 122 -5 -6 -11 -19 -13 -30 -2 -15 -11 -20 -38 -20 -27 0 -36 5 -38
20 -2 11 -8 24 -13 30 -5 5 -9 -43 -9 -120 0 -72 -4 -136 -9 -143 -5 -8 -21
-12 -37 -10 l-29 3 -3 203 -2 202 50 0 c45 0 51 -3 65 -30z m563 -12 c-3 -38
-6 -43 -30 -46 -19 -2 -31 3 -40 17 -7 12 -16 21 -20 21 -4 0 -9 -80 -10 -177
l-3 -178 -35 0 -35 0 -3 178 c-2 161 -10 212 -25 156 -4 -16 -12 -20 -39 -17
-31 3 -33 5 -36 46 l-3 42 141 0 141 0 -3 -42z m202 -138 l5 -175 55 0 55 0 6
175 c3 96 6 176 7 178 1 1 18 2 37 2 l35 0 0 -182 c0 -173 -1 -183 -22 -205
-19 -21 -30 -23 -113 -23 -78 0 -96 3 -119 21 l-26 20 0 178 c0 98 3 181 7
185 4 4 21 6 38 4 l30 -3 5 -175z m-633 -560 c18 -36 33 -74 33 -86 0 -11 -15
-50 -32 -85 -32 -62 -34 -64 -73 -64 -33 0 -43 5 -61 33 -13 18 -30 53 -39 77
-17 43 -17 44 9 101 37 81 52 96 95 92 33 -3 38 -8 68 -68z m298 -34 c32 -31
35 -38 35 -91 0 -53 -3 -60 -37 -92 -32 -30 -42 -34 -79 -31 -43 3 -43 3 -46
-32 -3 -30 -7 -35 -28 -35 l-25 0 -3 145 c-1 79 -1 149 2 155 2 7 33 12 75 13
67 1 72 -1 106 -32z m311 -1 c20 -20 25 -33 22 -68 l-3 -42 -77 -3 c-59 -2
-78 -6 -78 -17 0 -22 20 -30 90 -35 49 -4 65 -9 65 -20 0 -12 -17 -16 -78 -18
-75 -3 -79 -2 -107 27 -26 25 -30 37 -30 84 0 45 5 61 26 86 23 28 31 31 85
31 51 0 64 -4 85 -25z m159 15 c4 -7 12 -7 25 0 33 18 95 12 116 -11 16 -17
19 -37 19 -112 0 -82 -2 -92 -19 -95 -28 -6 -36 15 -36 101 0 89 -7 97 -63 73
l-36 -15 -3 -78 c-3 -76 -4 -78 -28 -78 -25 0 -25 1 -28 99 -1 55 0 106 2 113
6 15 42 18 51 3z m-750 -430 c20 -22 14 -50 -11 -50 -9 0 -22 7 -28 16 -9 11
-25 14 -60 12 l-48 -3 81 -101 c113 -142 109 -164 -26 -164 -77 0 -84 2 -99
25 -8 13 -13 29 -9 35 9 15 45 12 51 -5 4 -11 21 -15 55 -15 27 0 49 3 49 6 0
4 -34 49 -75 100 -42 52 -78 101 -82 109 -3 9 3 25 12 35 15 17 31 20 95 20
64 0 80 -3 95 -20z m290 -85 c22 -21 25 -33 25 -90 0 -57 -3 -69 -25 -90 -20
-21 -34 -25 -80 -25 -49 0 -60 4 -86 29 -25 26 -29 37 -29 86 0 49 4 60 29 86
26 25 37 29 86 29 46 0 60 -4 80 -25z m170 -67 c6 -47 13 -90 17 -94 5 -4 23
1 43 11 34 19 34 20 37 95 3 73 4 75 28 75 25 0 25 0 28 -108 2 -93 0 -108
-14 -114 -9 -3 -24 -1 -34 5 -10 6 -22 7 -31 1 -26 -16 -88 -10 -109 11 -17
17 -20 33 -20 116 0 93 1 95 23 92 20 -3 23 -11 32 -90z m293 80 c9 -9 15 -9
24 0 7 7 33 12 60 12 39 0 50 -4 64 -25 22 -33 15 -60 -16 -60 -18 0 -26 6
-28 23 -4 27 -27 28 -67 2 -28 -18 -30 -25 -35 -92 -5 -70 -6 -73 -30 -73 -25
0 -25 1 -28 99 -1 55 0 106 2 113 7 16 38 17 54 1z m457 -8 c0 -11 -14 -16
-55 -18 -67 -4 -100 -29 -100 -77 0 -48 33 -73 100 -77 41 -2 55 -7 55 -18 0
-12 -16 -16 -71 -18 l-71 -3 -38 42 c-34 38 -37 45 -32 87 4 36 12 52 38 74
31 25 40 28 104 25 54 -1 70 -5 70 -17z m281 -5 c20 -20 25 -33 22 -68 l-3
-42 -77 -3 c-59 -2 -78 -6 -78 -17 0 -22 20 -30 90 -35 49 -4 65 -9 65 -20 0
-12 -17 -16 -78 -18 -75 -3 -79 -2 -107 27 -26 25 -30 37 -30 84 0 45 5 61 26
86 23 28 31 31 85 31 51 0 64 -4 85 -25z m-1481 -415 c0 -11 -14 -16 -52 -18
-51 -3 -51 -3 -79 -57 l-28 -54 28 -60 29 -60 51 -3 c37 -2 51 -7 51 -18 0
-11 -14 -16 -49 -18 -73 -5 -92 3 -121 51 -47 82 -50 100 -22 161 39 85 56 97
130 94 47 -2 62 -7 62 -18z m223 -117 l3 -132 27 -3 c16 -2 27 -9 27 -18 0
-12 -16 -15 -85 -15 -69 0 -85 3 -85 15 0 9 11 16 28 18 l27 3 0 115 0 114
-24 0 c-14 0 -28 5 -31 10 -13 21 8 31 58 28 l52 -3 3 -132z m522 94 l0 -44
54 5 c48 4 57 1 80 -21 23 -23 26 -35 26 -92 0 -57 -3 -69 -24 -90 -23 -22
-32 -25 -105 -23 l-81 2 0 153 0 153 25 0 c23 0 25 -4 25 -43z m-295 -129 c6
-47 13 -90 17 -94 5 -4 23 1 43 11 34 19 34 20 37 95 3 73 4 75 28 75 25 0 25
0 28 -108 2 -93 0 -108 -14 -114 -9 -3 -24 -1 -34 5 -10 6 -22 7 -31 1 -26
-16 -88 -10 -109 11 -17 17 -20 33 -20 116 0 93 1 95 23 92 20 -3 23 -11 32
-90z"/>
<path d="M472 1525 c-12 -25 -22 -52 -22 -60 0 -18 42 -105 50 -105 8 0 50 87
50 105 0 18 -42 105 -50 105 -3 0 -16 -20 -28 -45z"/>
<path d="M773 1493 c-19 -13 -23 -25 -23 -68 0 -46 3 -55 26 -70 25 -16 27
-16 50 6 33 31 34 102 2 130 -27 22 -27 22 -55 2z"/>
<path d="M1062 1488 c-7 -7 -12 -20 -12 -30 0 -15 9 -18 50 -18 41 0 50 3 50
18 0 25 -20 42 -50 42 -14 0 -31 -5 -38 -12z"/>
<path d="M762 988 c-16 -16 -16 -110 0 -126 7 -7 24 -12 38 -12 14 0 31 5 38
12 16 16 16 110 0 126 -15 15 -61 15 -76 0z"/>
<path d="M1962 988 c-7 -7 -12 -20 -12 -30 0 -15 9 -18 50 -18 41 0 50 3 50
18 0 10 -5 23 -12 30 -15 15 -61 15 -76 0z"/>
<path d="M1372 482 c-19 -15 -23 -26 -20 -61 2 -34 9 -46 31 -59 43 -26 61 -8
65 63 4 76 -24 97 -76 57z"/>
</g>
</svg>
